<?xml version="1.0" encoding="iso-8859-1"?>
<svg version="1.1" id="Layer_1" xmlns="http://www.w3.org/2000/svg"
     viewBox="0 0 512 512" xml:space="preserve">

<polygon style="fill:#C4C9CA;" points="182.103,453.938 182.103,374.763 324.619,374.763 324.619,453.938 366.845,453.938 
        387.959,496.165 124.041,496.165 145.155,453.938"/>
<rect x="40" y="40" width="432" height="240" rx="6" fill="#1E73BE"/>
<rect x="40" y="40" width="432" height="45" fill="#155A96"/>
<text x="60" y="70" font-size="20" fill="#FFFFFF" font-family="Arial" font-weight="bold">Date</text>
<text x="180" y="70" font-size="20" fill="#FFFFFF" font-family="Arial" font-weight="bold">Description</text>
<text x="360" y="70" font-size="20" fill="#FFFFFF" font-family="Arial" font-weight="bold">Amount</text>
<g stroke="#FFFFFF" stroke-width="2" opacity="0.6">
    <line x1="150" y1="85" x2="150" y2="280"/>
    <line x1="330" y1="85" x2="330" y2="280"/>
    <line x1="40" y1="115" x2="472" y2="115"/>
    <line x1="40" y1="150" x2="472" y2="150"/>
    <line x1="40" y1="185" x2="472" y2="185"/>
    <line x1="40" y1="220" x2="472" y2="220"/>
    <line x1="40" y1="255" x2="472" y2="255"/>
</g>
<polygon style="fill:#595E62;" points="504.082,290.309 504.082,374.763 324.619,374.763 182.103,374.763 7.918,374.763 
        7.918,290.309"/>
<rect x="182.103" y="374.763" style="fill:#E7ECED;" width="142.515" height="79.175"/>
<path d="M512,382.68V7.918H0V382.68h174.186v63.34h-33.924l-29.031,58.062h289.539l-29.031-58.062h-39.202v-63.34H512z"/>
</svg>